<?xml version="1.0" standalone="no"?>
<!DOCTYPE svg PUBLIC "-//W3C//DTD SVG 20010904//EN"
 "http://www.w3.org/TR/2001/REC-SVG-20010904/DTD/svg10.dtd">
<svg version="1.0" xmlns="http://www.w3.org/2000/svg"
 width="87.000000pt" height="87.000000pt" viewBox="0 0 87.000000 87.000000"
 preserveAspectRatio="xMidYMid meet">

<g transform="translate(0.000000,87.000000) scale(0.100000,-0.100000)"
fill="#000000" stroke="none">
<path d="M83 862 c39 -2 55 -7 51 -14 -4 -7 -3 -8 4 -4 7 4 12 1 12 -9 0 -10
-5 -13 -12 -9 -7 4 -8 3 -4 -4 17 -28 -48 -85 -66 -58 -5 6 -5 -4 -2 -22 4
-18 3 -32 -2 -31 -5 1 -17 -1 -28 -6 -12 -5 -21 -3 -27 6 -6 10 -9 11 -9 1 0
-19 28 -26 45 -12 10 9 15 9 15 1 0 -6 6 -11 14 -11 7 0 20 -10 29 -22 l15
-23 29 28 c22 21 25 30 15 36 -23 14 -10 56 18 59 47 6 56 15 20 21 -26 5 -35
11 -35 26 0 16 6 19 30 17 22 -2 26 0 16 7 -11 7 -9 10 10 13 35 5 70 -3 63
-14 -4 -5 8 -2 25 7 21 10 49 15 82 12 28 -2 52 0 55 5 3 4 -91 6 -208 5 -117
-1 -187 -3 -155 -5z m18 -119 c0 -5 2 -15 4 -23 1 -9 -4 -16 -14 -16 -13 0
-16 7 -13 23 4 21 21 33 23 16z"/>
<path d="M480 866 c0 -2 9 -6 20 -9 11 -3 18 -1 14 4 -5 9 -34 13 -34 5z"/>
<path d="M543 863 c9 -2 17 -8 17 -13 0 -5 12 -10 27 -12 21 -2 27 -8 26 -25
-2 -41 -3 -44 -15 -37 -7 4 -8 3 -4 -5 4 -6 11 -9 16 -6 5 3 10 -9 12 -26 2
-26 8 -33 28 -36 18 -2 21 -1 10 6 -8 5 -18 7 -22 5 -4 -3 -8 13 -8 35 0 21
-3 48 -7 58 -6 16 -5 17 12 3 10 -8 16 -10 12 -3 -4 6 -1 14 5 16 10 4 10 6 1
6 -7 1 -22 10 -33 21 -14 14 -32 20 -57 19 -21 -1 -30 -3 -20 -6z"/>
<path d="M646 855 c-3 -8 -1 -15 4 -15 6 0 10 7 10 15 0 8 -2 15 -4 15 -2 0
-6 -7 -10 -15z"/>
<path d="M686 861 c-3 -4 -10 -20 -15 -34 -9 -24 -9 -25 12 -18 14 5 23 18 25
35 3 25 -11 36 -22 17z"/>
<path d="M8 843 c7 -3 16 -2 19 1 4 3 -2 6 -13 5 -11 0 -14 -3 -6 -6z"/>
<path d="M324 825 c-4 -8 -3 -27 1 -42 5 -22 4 -24 -8 -15 -11 9 -14 8 -14 -3
0 -7 3 -13 6 -12 3 1 7 -2 8 -8 0 -5 -3 -9 -8 -7 -5 1 -9 -2 -9 -8 0 -5 5 -10
10 -10 6 0 9 -5 8 -12 -4 -15 22 -18 40 -4 9 6 16 6 20 0 4 -5 24 -10 45 -10
37 -1 37 -1 37 39 0 32 3 38 12 29 7 -7 17 -12 22 -12 6 0 3 5 -7 11 -9 6 -15
14 -12 19 3 5 0 12 -6 16 -8 4 -9 3 -5 -4 4 -7 2 -12 -3 -12 -6 0 -11 -15 -11
-34 0 -19 -5 -38 -12 -42 -7 -5 -8 -3 -3 5 6 10 3 11 -13 2 -16 -8 -21 -7 -26
5 -6 15 -8 15 -30 1 -17 -12 -26 -13 -35 -4 -8 8 -3 20 21 46 18 19 26 30 18
24 -20 -15 -36 -4 -37 24 -1 17 5 23 30 26 l32 4 -33 1 c-21 1 -35 -3 -38 -13z"/>
<path d="M470 820 c11 -11 23 -20 27 -20 3 0 -2 9 -12 20 -10 11 -22 20 -27
20 -4 0 1 -9 12 -20z"/>
<path d="M825 830 c3 -5 -2 -9 -12 -8 -10 0 -36 0 -57 0 -37 -2 -38 -3 -21
-16 19 -14 19 -14 0 -36 -16 -18 -16 -20 -2 -14 13 5 17 0 17 -20 0 -14 3 -25
8 -23 8 2 28 -13 62 -47 17 -17 20 -17 34 -3 17 17 22 47 7 47 -12 0 -21 39
-11 45 5 3 11 -3 13 -12 4 -16 5 -17 6 -1 0 10 -7 22 -18 27 -17 9 -18 7 -15
-34 4 -39 2 -45 -16 -45 -14 0 -18 5 -14 18 5 14 4 15 -5 2 -10 -14 -16 -7
-12 13 1 5 -3 6 -9 2 -6 -4 -10 4 -10 19 0 14 -4 26 -8 26 -4 0 -8 9 -8 20 0
18 5 20 43 17 23 -2 40 0 37 5 -3 4 0 8 5 8 6 0 11 -5 11 -11 0 -5 5 -7 11 -4
6 5 4 12 -8 21 -21 16 -37 18 -28 4z"/>
<path d="M171 814 c0 -11 3 -14 6 -6 3 7 2 16 -1 19 -3 4 -6 -2 -5 -13z"/>
<path d="M16 790 c19 -37 27 -39 18 -4 -5 21 -4 25 6 19 9 -5 11 -4 6 3 -4 7
-16 12 -26 12 -17 0 -17 -2 -4 -30z"/>
<path d="M516 775 c-3 -8 -1 -15 4 -15 6 0 10 7 10 15 0 8 -2 15 -4 15 -2 0
-6 -7 -10 -15z"/>
<path d="M682 771 c-11 -7 -11 -9 0 -14 9 -3 15 1 15 9 0 8 -1 14 -1 14 -1 0
-7 -4 -14 -9z"/>
<path d="M788 773 c7 -3 16 -2 19 1 4 3 -2 6 -13 5 -11 0 -14 -3 -6 -6z"/>
<path d="M387 749 c7 -7 15 -10 18 -7 3 3 -2 9 -12 12 -14 6 -15 5 -6 -5z"/>
<path d="M584 752 c4 -7 2 -12 -3 -12 -6 0 -10 -3 -10 -7 3 -21 -2 -33 -13
-27 -7 4 -8 3 -4 -4 9 -15 -15 -16 -32 -2 -7 5 -6 3 2 -6 19 -22 41 -12 60 25
12 22 13 32 4 37 -7 4 -8 3 -4 -4z"/>
<path d="M795 751 c-3 -5 -2 -12 3 -15 5 -3 9 1 9 9 0 17 -3 19 -12 6z"/>
<path d="M10 741 c0 -6 4 -13 10 -16 6 -3 7 1 4 9 -7 18 -14 21 -14 7z"/>
<path d="M663 735 c0 -8 4 -15 9 -15 4 0 8 7 8 15 0 8 -4 15 -8 15 -5 0 -9 -7
-9 -15z"/>
<path d="M693 703 c9 -2 25 -2 35 0 9 3 1 5 -18 5 -19 0 -27 -2 -17 -5z"/>
<path d="M775 650 c-4 -6 -11 -7 -17 -4 -7 4 -8 2 -4 -5 6 -9 12 -9 24 1 10 7
19 14 21 15 2 2 -1 3 -7 3 -6 0 -14 -5 -17 -10z"/>
<path d="M800 605 c0 -2 6 -8 13 -14 10 -8 14 -7 14 2 0 8 -6 14 -14 14 -7 0
-13 -1 -13 -2z"/>
<path d="M58 551 c-61 -9 -73 -21 -20 -21 39 0 42 -2 51 -37 6 -21 11 -58 11
-83 1 -39 2 -42 12 -25 6 11 11 37 9 57 -1 21 3 38 9 38 5 0 10 14 10 30 0 21
-5 30 -16 30 -8 0 -12 5 -9 10 3 6 3 9 -2 9 -4 -1 -29 -5 -55 -8z"/>
<path d="M758 534 c9 -12 19 -18 20 -13 2 5 25 9 50 9 60 1 36 16 -35 22 l-52
5 17 -23z"/>
<path d="M274 526 c-20 -11 -21 -14 -7 -36 8 -14 12 -17 9 -8 -3 11 2 22 16
29 17 9 20 9 15 -3 -4 -11 1 -14 21 -12 15 1 30 -3 34 -9 6 -9 8 -9 8 0 0 14
-48 53 -64 52 -6 -1 -21 -6 -32 -13z"/>
<path d="M540 533 c-21 -8 -50 -34 -50 -45 0 -5 6 -6 13 -1 6 4 19 8 27 10 8
1 16 7 18 12 6 19 42 -7 36 -27 -2 -9 1 -7 7 6 10 19 9 25 -7 37 -21 16 -22
16 -44 8z"/>
<path d="M720 530 c0 -5 7 -10 16 -10 8 0 12 5 9 10 -3 6 -10 10 -16 10 -5 0
-9 -4 -9 -10z"/>
<path d="M721 483 c0 -17 3 -22 6 -13 4 8 13 20 22 27 14 11 13 12 -6 13 -19
0 -23 -5 -22 -27z"/>
<path d="M758 453 c7 -3 16 -2 19 1 4 3 -2 6 -13 5 -11 0 -14 -3 -6 -6z"/>
<path d="M793 448 c-4 -7 -8 -17 -8 -23 0 -5 -11 -12 -25 -16 -23 -6 -24 -7
-6 -14 13 -6 21 -4 24 3 8 24 23 11 20 -15 -2 -17 -8 -27 -17 -25 -9 2 -11 -3
-7 -13 3 -9 6 -25 6 -36 0 -17 3 -18 20 -7 13 8 19 20 16 31 -3 11 0 16 7 14
7 -3 11 -10 10 -16 -2 -6 6 -11 17 -11 18 0 20 7 20 60 0 33 -3 60 -6 60 -15
0 -34 -32 -34 -57 0 -20 -3 -24 -9 -14 -5 8 -7 21 -4 29 3 8 0 18 -8 23 -11 7
-10 11 6 23 17 13 18 15 3 16 -9 0 -20 -6 -25 -12z"/>
<path d="M431 424 c0 -11 3 -14 6 -6 3 7 2 16 -1 19 -3 4 -6 -2 -5 -13z"/>
<path d="M112 353 c-16 -43 -33 -94 -37 -113 -6 -34 -6 -34 19 12 24 43 60
167 52 176 -2 2 -17 -32 -34 -75z"/>
<path d="M721 400 c0 -8 9 -31 20 -50 15 -26 18 -29 13 -10 -9 35 -33 78 -33
60z"/>
<path d="M413 373 c9 -2 25 -2 35 0 9 3 1 5 -18 5 -19 0 -27 -2 -17 -5z"/>
<path d="M766 275 c3 -22 10 -47 15 -55 12 -18 1 44 -12 75 -7 14 -7 7 -3 -20z"/>
<path d="M798 254 c4 -20 6 -21 18 -9 18 18 18 22 -4 27 -15 4 -18 1 -14 -18z"/>
<path d="M352 262 c-13 -4 -23 -10 -23 -14 1 -5 1 -14 1 -21 0 -9 9 -12 29 -9
20 3 28 8 24 18 -4 10 0 12 11 8 9 -3 13 -10 10 -15 -3 -5 0 -9 5 -9 6 0 11
11 11 25 0 26 -18 31 -68 17z"/>
<path d="M440 246 c0 -14 5 -26 11 -26 5 0 8 4 5 9 -3 5 1 12 10 15 11 4 15 2
11 -8 -4 -9 3 -15 23 -18 21 -3 30 0 33 14 6 22 1 26 -51 34 -40 6 -42 5 -42
-20z"/>
<path d="M538 207 c-14 -13 -29 -22 -35 -20 -5 2 -22 -8 -37 -22 l-28 -26 -45
21 c-24 11 -41 25 -37 31 4 7 -6 9 -27 7 -28 -2 -37 -10 -51 -40 -10 -20 -28
-42 -40 -49 -13 -6 -25 -13 -27 -15 -2 -2 5 -23 15 -48 l19 -46 122 0 c112 0
122 1 117 17 -5 17 -5 17 6 1 8 -14 25 -18 68 -18 l58 0 21 65 c21 65 21 66 2
78 -10 6 -19 20 -19 29 0 18 -33 58 -49 58 -4 0 -19 -10 -33 -23z"/>
<path d="M846 215 c-3 -9 0 -15 8 -15 7 0 13 7 13 15 0 8 -4 15 -8 15 -4 0 -9
-7 -13 -15z"/>
<path d="M11 199 c12 -8 12 -10 -1 -19 -9 -6 -10 -10 -3 -10 9 0 43 26 43 33
0 1 -12 3 -27 4 -19 1 -22 -1 -12 -8z"/>
<path d="M390 185 c0 -2 7 -8 15 -15 12 -10 15 -10 15 2 0 8 -7 15 -15 15 -8
0 -15 -1 -15 -2z"/>
<path d="M440 174 c0 -8 5 -12 10 -9 6 4 8 11 5 16 -9 14 -15 11 -15 -7z"/>
</g>
</svg>
